<?xml version="1.0" standalone="no"?>
<!DOCTYPE svg PUBLIC "-//W3C//DTD SVG 20010904//EN"
 "http://www.w3.org/TR/2001/REC-SVG-20010904/DTD/svg10.dtd">
<svg version="1.0" xmlns="http://www.w3.org/2000/svg"
 width="200.000000pt" height="200.000000pt" viewBox="0 0 200.000000 200.000000"
 preserveAspectRatio="xMidYMid meet">

<g transform="translate(0.000000,200.000000) scale(0.100000,-0.100000)"
fill="#000000" stroke="none">
<path d="M40 995 l0 -965 963 2 962 3 3 963 2 962 -965 0 -965 0 0 -965z
m1178 805 c40 -11 105 -37 144 -56 l71 -36 -54 -54 -55 -55 -54 24 c-98 42
-149 52 -275 51 -102 0 -132 -4 -200 -27 -109 -36 -196 -90 -274 -168 -79 -80
-132 -166 -168 -274 -23 -69 -26 -97 -26 -205 0 -108 3 -136 26 -205 23 -71
78 -175 92 -175 7 0 410 369 411 378 1 4 -75 79 -168 167 l-170 160 137 3 137
3 105 -101 105 -100 180 172 c99 95 218 208 265 252 l84 79 37 -30 c52 -42
136 -155 176 -238 125 -254 110 -562 -38 -799 -118 -187 -278 -307 -491 -368
-114 -32 -316 -32 -428 0 -77 22 -210 83 -221 101 -4 5 19 31 49 56 l55 48 60
-27 c127 -57 296 -72 432 -37 359 92 578 443 503 806 -14 69 -90 236 -110 242
-5 1 -101 -86 -212 -195 l-203 -197 165 -155 164 -155 -135 -3 -136 -3 -94 91
c-52 49 -99 90 -104 90 -6 0 -122 -102 -258 -227 -301 -278 -276 -257 -302
-243 -38 20 -143 164 -186 255 -62 132 -78 207 -78 355 0 152 17 229 79 356
117 242 334 410 592 459 103 19 273 13 371 -15z"/>
</g>
</svg>
